<mxfile host="app.diagrams.net" agent="Mozilla/5.0 (Windows NT 10.0; Win64; x64) AppleWebKit/537.36 (KHTML, like Gecko) Chrome/134.0.0.0 Safari/537.36" version="26.1.1">
  <diagram name="Page-1" id="HC8Ba4LS17rCvkMrGGHp">
    <mxGraphModel dx="1050" dy="1726" grid="1" gridSize="10" guides="1" tooltips="1" connect="1" arrows="1" fold="1" page="1" pageScale="1" pageWidth="827" pageHeight="1169" math="0" shadow="0">
      <root>
        <mxCell id="0" />
        <mxCell id="1" parent="0" />
        <mxCell id="SIVp_1UuZN5y42gcSO3J-1" value="Home page" style="html=1;dropTarget=0;whiteSpace=wrap;fillColor=#3399FF;strokeColor=#66B2FF;" vertex="1" parent="1">
          <mxGeometry y="-320" width="140" height="70" as="geometry" />
        </mxCell>
        <mxCell id="SIVp_1UuZN5y42gcSO3J-2" value="" style="shape=module;jettyWidth=8;jettyHeight=4;" vertex="1" parent="SIVp_1UuZN5y42gcSO3J-1">
          <mxGeometry x="1" width="20" height="20" relative="1" as="geometry">
            <mxPoint x="-27" y="7" as="offset" />
          </mxGeometry>
        </mxCell>
        <mxCell id="SIVp_1UuZN5y42gcSO3J-5" value="Services &amp;amp; offers" style="html=1;dropTarget=0;whiteSpace=wrap;fillColor=#00CC00;" vertex="1" parent="1">
          <mxGeometry x="414" y="-555" width="136" height="80" as="geometry" />
        </mxCell>
        <mxCell id="SIVp_1UuZN5y42gcSO3J-6" value="" style="shape=module;jettyWidth=8;jettyHeight=4;" vertex="1" parent="SIVp_1UuZN5y42gcSO3J-5">
          <mxGeometry x="1" width="20" height="20" relative="1" as="geometry">
            <mxPoint x="-27" y="7" as="offset" />
          </mxGeometry>
        </mxCell>
        <mxCell id="SIVp_1UuZN5y42gcSO3J-7" value="About me" style="html=1;dropTarget=0;whiteSpace=wrap;fillColor=#00CC00;" vertex="1" parent="1">
          <mxGeometry x="415" y="-430" width="136" height="80" as="geometry" />
        </mxCell>
        <mxCell id="SIVp_1UuZN5y42gcSO3J-8" value="" style="shape=module;jettyWidth=8;jettyHeight=4;" vertex="1" parent="SIVp_1UuZN5y42gcSO3J-7">
          <mxGeometry x="1" width="20" height="20" relative="1" as="geometry">
            <mxPoint x="-27" y="7" as="offset" />
          </mxGeometry>
        </mxCell>
        <mxCell id="SIVp_1UuZN5y42gcSO3J-14" value="Contact me" style="html=1;dropTarget=0;whiteSpace=wrap;fillColor=#00CC00;" vertex="1" parent="1">
          <mxGeometry x="414" y="-302.5" width="136" height="80" as="geometry" />
        </mxCell>
        <mxCell id="SIVp_1UuZN5y42gcSO3J-15" value="" style="shape=module;jettyWidth=8;jettyHeight=4;" vertex="1" parent="SIVp_1UuZN5y42gcSO3J-14">
          <mxGeometry x="1" width="20" height="20" relative="1" as="geometry">
            <mxPoint x="-27" y="7" as="offset" />
          </mxGeometry>
        </mxCell>
        <mxCell id="SIVp_1UuZN5y42gcSO3J-16" value="PhotoGallery" style="html=1;dropTarget=0;whiteSpace=wrap;fillColor=#00CC00;" vertex="1" parent="1">
          <mxGeometry x="412" y="-190" width="136" height="90" as="geometry" />
        </mxCell>
        <mxCell id="SIVp_1UuZN5y42gcSO3J-17" value="" style="shape=module;jettyWidth=8;jettyHeight=4;" vertex="1" parent="SIVp_1UuZN5y42gcSO3J-16">
          <mxGeometry x="1" width="20" height="20" relative="1" as="geometry">
            <mxPoint x="-27" y="7" as="offset" />
          </mxGeometry>
        </mxCell>
        <mxCell id="SIVp_1UuZN5y42gcSO3J-42" value="" style="ellipse;whiteSpace=wrap;html=1;align=center;aspect=fixed;fillColor=none;strokeColor=none;resizable=0;perimeter=centerPerimeter;rotatable=0;allowArrows=0;points=[];outlineConnect=1;" vertex="1" parent="1">
          <mxGeometry x="405" y="-270" width="10" height="10" as="geometry" />
        </mxCell>
        <mxCell id="SIVp_1UuZN5y42gcSO3J-43" value="" style="rounded=0;orthogonalLoop=1;jettySize=auto;html=1;endArrow=halfCircle;endFill=0;endSize=6;strokeWidth=1;sketch=0;exitX=0;exitY=0.5;exitDx=0;exitDy=0;" edge="1" parent="1" source="SIVp_1UuZN5y42gcSO3J-5">
          <mxGeometry relative="1" as="geometry">
            <mxPoint x="430" y="-265" as="sourcePoint" />
            <mxPoint x="260" y="-450" as="targetPoint" />
          </mxGeometry>
        </mxCell>
        <mxCell id="SIVp_1UuZN5y42gcSO3J-44" value="" style="rounded=0;orthogonalLoop=1;jettySize=auto;html=1;endArrow=oval;endFill=0;sketch=0;sourcePerimeterSpacing=0;targetPerimeterSpacing=0;endSize=10;exitX=1;exitY=0;exitDx=0;exitDy=0;" edge="1" parent="1" source="SIVp_1UuZN5y42gcSO3J-1">
          <mxGeometry relative="1" as="geometry">
            <mxPoint x="390" y="-265" as="sourcePoint" />
            <mxPoint x="260" y="-450" as="targetPoint" />
          </mxGeometry>
        </mxCell>
        <mxCell id="SIVp_1UuZN5y42gcSO3J-45" value="" style="ellipse;whiteSpace=wrap;html=1;align=center;aspect=fixed;fillColor=none;strokeColor=none;resizable=0;perimeter=centerPerimeter;rotatable=0;allowArrows=0;points=[];outlineConnect=1;" vertex="1" parent="1">
          <mxGeometry x="405" y="-270" width="10" height="10" as="geometry" />
        </mxCell>
        <mxCell id="SIVp_1UuZN5y42gcSO3J-46" value="" style="rounded=0;orthogonalLoop=1;jettySize=auto;html=1;endArrow=halfCircle;endFill=0;endSize=6;strokeWidth=1;sketch=0;exitX=0;exitY=0.5;exitDx=0;exitDy=0;" edge="1" parent="1" source="SIVp_1UuZN5y42gcSO3J-7">
          <mxGeometry relative="1" as="geometry">
            <mxPoint x="430" y="-265" as="sourcePoint" />
            <mxPoint x="280" y="-370" as="targetPoint" />
          </mxGeometry>
        </mxCell>
        <mxCell id="SIVp_1UuZN5y42gcSO3J-47" value="" style="rounded=0;orthogonalLoop=1;jettySize=auto;html=1;endArrow=oval;endFill=0;sketch=0;sourcePerimeterSpacing=0;targetPerimeterSpacing=0;endSize=10;exitX=1;exitY=0.25;exitDx=0;exitDy=0;" edge="1" parent="1" source="SIVp_1UuZN5y42gcSO3J-1">
          <mxGeometry relative="1" as="geometry">
            <mxPoint x="390" y="-265" as="sourcePoint" />
            <mxPoint x="280" y="-370" as="targetPoint" />
          </mxGeometry>
        </mxCell>
        <mxCell id="SIVp_1UuZN5y42gcSO3J-48" value="" style="ellipse;whiteSpace=wrap;html=1;align=center;aspect=fixed;fillColor=none;strokeColor=none;resizable=0;perimeter=centerPerimeter;rotatable=0;allowArrows=0;points=[];outlineConnect=1;" vertex="1" parent="1">
          <mxGeometry x="405" y="-270" width="10" height="10" as="geometry" />
        </mxCell>
        <mxCell id="SIVp_1UuZN5y42gcSO3J-49" value="" style="rounded=0;orthogonalLoop=1;jettySize=auto;html=1;endArrow=halfCircle;endFill=0;endSize=6;strokeWidth=1;sketch=0;exitX=0;exitY=0.5;exitDx=0;exitDy=0;" edge="1" parent="1" source="SIVp_1UuZN5y42gcSO3J-14">
          <mxGeometry relative="1" as="geometry">
            <mxPoint x="430" y="-265" as="sourcePoint" />
            <mxPoint x="290" y="-260" as="targetPoint" />
          </mxGeometry>
        </mxCell>
        <mxCell id="SIVp_1UuZN5y42gcSO3J-50" value="" style="rounded=0;orthogonalLoop=1;jettySize=auto;html=1;endArrow=oval;endFill=0;sketch=0;sourcePerimeterSpacing=0;targetPerimeterSpacing=0;endSize=10;exitX=1;exitY=0.5;exitDx=0;exitDy=0;" edge="1" parent="1" source="SIVp_1UuZN5y42gcSO3J-1">
          <mxGeometry relative="1" as="geometry">
            <mxPoint x="390" y="-265" as="sourcePoint" />
            <mxPoint x="290" y="-260" as="targetPoint" />
          </mxGeometry>
        </mxCell>
        <mxCell id="SIVp_1UuZN5y42gcSO3J-51" value="" style="ellipse;whiteSpace=wrap;html=1;align=center;aspect=fixed;fillColor=none;strokeColor=none;resizable=0;perimeter=centerPerimeter;rotatable=0;allowArrows=0;points=[];outlineConnect=1;" vertex="1" parent="1">
          <mxGeometry x="405" y="-270" width="10" height="10" as="geometry" />
        </mxCell>
        <mxCell id="SIVp_1UuZN5y42gcSO3J-52" value="" style="rounded=0;orthogonalLoop=1;jettySize=auto;html=1;endArrow=halfCircle;endFill=0;endSize=6;strokeWidth=1;sketch=0;exitX=0;exitY=0.5;exitDx=0;exitDy=0;" edge="1" parent="1" source="SIVp_1UuZN5y42gcSO3J-16">
          <mxGeometry relative="1" as="geometry">
            <mxPoint x="430" y="-265" as="sourcePoint" />
            <mxPoint x="270" y="-140" as="targetPoint" />
          </mxGeometry>
        </mxCell>
        <mxCell id="SIVp_1UuZN5y42gcSO3J-53" value="" style="rounded=0;orthogonalLoop=1;jettySize=auto;html=1;endArrow=oval;endFill=0;sketch=0;sourcePerimeterSpacing=0;targetPerimeterSpacing=0;endSize=10;exitX=1;exitY=0.75;exitDx=0;exitDy=0;" edge="1" parent="1" source="SIVp_1UuZN5y42gcSO3J-1">
          <mxGeometry relative="1" as="geometry">
            <mxPoint x="390" y="-265" as="sourcePoint" />
            <mxPoint x="270" y="-140" as="targetPoint" />
          </mxGeometry>
        </mxCell>
        <mxCell id="SIVp_1UuZN5y42gcSO3J-54" value="" style="ellipse;whiteSpace=wrap;html=1;align=center;aspect=fixed;fillColor=none;strokeColor=none;resizable=0;perimeter=centerPerimeter;rotatable=0;allowArrows=0;points=[];outlineConnect=1;" vertex="1" parent="1">
          <mxGeometry x="405" y="-270" width="10" height="10" as="geometry" />
        </mxCell>
        <mxCell id="SIVp_1UuZN5y42gcSO3J-57" value="&lt;font style=&quot;font-size: 9px;&quot;&gt;Booking a session&lt;/font&gt;" style="html=1;whiteSpace=wrap;fillColor=#99CCFF;" vertex="1" parent="1">
          <mxGeometry x="32.5" y="-275" width="75" height="25" as="geometry" />
        </mxCell>
        <mxCell id="SIVp_1UuZN5y42gcSO3J-59" value="&lt;font style=&quot;font-size: 9px;&quot;&gt;Booking a session&lt;/font&gt;" style="html=1;whiteSpace=wrap;fillColor=#66FF66;" vertex="1" parent="1">
          <mxGeometry x="444.5" y="-500" width="75" height="25" as="geometry" />
        </mxCell>
        <mxCell id="SIVp_1UuZN5y42gcSO3J-60" value="&lt;font style=&quot;font-size: 9px;&quot;&gt;Booking a session&lt;/font&gt;" style="html=1;whiteSpace=wrap;fillColor=#66FF66;" vertex="1" parent="1">
          <mxGeometry x="444.5" y="-375" width="75" height="25" as="geometry" />
        </mxCell>
        <mxCell id="SIVp_1UuZN5y42gcSO3J-61" value="&lt;font style=&quot;font-size: 9px;&quot;&gt;Booking a session&lt;/font&gt;" style="html=1;whiteSpace=wrap;fillColor=#66FF66;" vertex="1" parent="1">
          <mxGeometry x="475" y="-250" width="75" height="27.5" as="geometry" />
        </mxCell>
        <mxCell id="SIVp_1UuZN5y42gcSO3J-62" value="&lt;font style=&quot;font-size: 9px;&quot;&gt;Booking a session&lt;/font&gt;" style="html=1;whiteSpace=wrap;fillColor=#66FF66;" vertex="1" parent="1">
          <mxGeometry x="442.5" y="-125" width="75" height="25" as="geometry" />
        </mxCell>
        <mxCell id="SIVp_1UuZN5y42gcSO3J-63" value="&amp;lt;&amp;lt;component&amp;gt;&amp;gt;" style="text;align=center;fontStyle=1;verticalAlign=middle;spacingLeft=3;spacingRight=3;strokeColor=none;rotatable=0;points=[[0,0.5],[1,0.5]];portConstraint=eastwest;html=1;" vertex="1" parent="1">
          <mxGeometry x="20" y="-320" width="80" height="26" as="geometry" />
        </mxCell>
        <mxCell id="SIVp_1UuZN5y42gcSO3J-64" value="&amp;lt;&amp;lt;component&amp;gt;&amp;gt;" style="text;align=center;fontStyle=1;verticalAlign=middle;spacingLeft=3;spacingRight=3;strokeColor=none;rotatable=0;points=[[0,0.5],[1,0.5]];portConstraint=eastwest;html=1;" vertex="1" parent="1">
          <mxGeometry x="430" y="-555" width="80" height="26" as="geometry" />
        </mxCell>
        <mxCell id="SIVp_1UuZN5y42gcSO3J-65" value="&amp;lt;&amp;lt;component&amp;gt;&amp;gt;" style="text;align=center;fontStyle=1;verticalAlign=middle;spacingLeft=3;spacingRight=3;strokeColor=none;rotatable=0;points=[[0,0.5],[1,0.5]];portConstraint=eastwest;html=1;" vertex="1" parent="1">
          <mxGeometry x="430" y="-430" width="80" height="26" as="geometry" />
        </mxCell>
        <mxCell id="SIVp_1UuZN5y42gcSO3J-66" value="&amp;lt;&amp;lt;component&amp;gt;&amp;gt;" style="text;align=center;fontStyle=1;verticalAlign=middle;spacingLeft=3;spacingRight=3;strokeColor=none;rotatable=0;points=[[0,0.5],[1,0.5]];portConstraint=eastwest;html=1;" vertex="1" parent="1">
          <mxGeometry x="430" y="-302.5" width="80" height="26" as="geometry" />
        </mxCell>
        <mxCell id="SIVp_1UuZN5y42gcSO3J-67" value="&amp;lt;&amp;lt;component&amp;gt;&amp;gt;" style="text;align=center;fontStyle=1;verticalAlign=middle;spacingLeft=3;spacingRight=3;strokeColor=none;rotatable=0;points=[[0,0.5],[1,0.5]];portConstraint=eastwest;html=1;" vertex="1" parent="1">
          <mxGeometry x="430" y="-190" width="80" height="26" as="geometry" />
        </mxCell>
        <mxCell id="SIVp_1UuZN5y42gcSO3J-68" value="Database" style="html=1;whiteSpace=wrap;" vertex="1" parent="1">
          <mxGeometry x="740" y="-350" width="130" height="68" as="geometry" />
        </mxCell>
        <mxCell id="SIVp_1UuZN5y42gcSO3J-86" value="Reviews" style="html=1;dropTarget=0;whiteSpace=wrap;fillColor=#00CC00;" vertex="1" parent="1">
          <mxGeometry x="409" y="-80" width="141" height="70" as="geometry" />
        </mxCell>
        <mxCell id="SIVp_1UuZN5y42gcSO3J-87" value="" style="shape=module;jettyWidth=8;jettyHeight=4;" vertex="1" parent="SIVp_1UuZN5y42gcSO3J-86">
          <mxGeometry x="1" width="20" height="20" relative="1" as="geometry">
            <mxPoint x="-27" y="7" as="offset" />
          </mxGeometry>
        </mxCell>
        <mxCell id="SIVp_1UuZN5y42gcSO3J-89" value="&amp;lt;&amp;lt;component&amp;gt;&amp;gt;" style="text;align=center;fontStyle=1;verticalAlign=middle;spacingLeft=3;spacingRight=3;strokeColor=none;rotatable=0;points=[[0,0.5],[1,0.5]];portConstraint=eastwest;html=1;" vertex="1" parent="1">
          <mxGeometry x="430" y="-80" width="80" height="26" as="geometry" />
        </mxCell>
        <mxCell id="SIVp_1UuZN5y42gcSO3J-90" value="&lt;font style=&quot;font-size: 9px;&quot;&gt;Booking a session&lt;/font&gt;" style="html=1;whiteSpace=wrap;fillColor=#66FF66;" vertex="1" parent="1">
          <mxGeometry x="445.5" y="-35" width="75" height="25" as="geometry" />
        </mxCell>
        <mxCell id="SIVp_1UuZN5y42gcSO3J-97" value="" style="rounded=0;orthogonalLoop=1;jettySize=auto;html=1;endArrow=halfCircle;endFill=0;endSize=6;strokeWidth=1;sketch=0;exitX=0.5;exitY=1;exitDx=0;exitDy=0;" edge="1" target="SIVp_1UuZN5y42gcSO3J-99" parent="1" source="SIVp_1UuZN5y42gcSO3J-68">
          <mxGeometry relative="1" as="geometry">
            <mxPoint x="800" y="-169" as="sourcePoint" />
          </mxGeometry>
        </mxCell>
        <mxCell id="SIVp_1UuZN5y42gcSO3J-98" value="" style="rounded=0;orthogonalLoop=1;jettySize=auto;html=1;endArrow=oval;endFill=0;sketch=0;sourcePerimeterSpacing=0;targetPerimeterSpacing=0;endSize=10;exitX=1;exitY=0.5;exitDx=0;exitDy=0;" edge="1" target="SIVp_1UuZN5y42gcSO3J-99" parent="1" source="SIVp_1UuZN5y42gcSO3J-86">
          <mxGeometry relative="1" as="geometry">
            <mxPoint x="760" y="-169" as="sourcePoint" />
          </mxGeometry>
        </mxCell>
        <mxCell id="SIVp_1UuZN5y42gcSO3J-99" value="" style="ellipse;whiteSpace=wrap;html=1;align=center;aspect=fixed;fillColor=none;strokeColor=none;resizable=0;perimeter=centerPerimeter;rotatable=0;allowArrows=0;points=[];outlineConnect=1;" vertex="1" parent="1">
          <mxGeometry x="775" y="-174" width="10" height="10" as="geometry" />
        </mxCell>
        <mxCell id="SIVp_1UuZN5y42gcSO3J-100" value="" style="rounded=0;orthogonalLoop=1;jettySize=auto;html=1;endArrow=halfCircle;endFill=0;endSize=6;strokeWidth=1;sketch=0;exitX=0;exitY=0.5;exitDx=0;exitDy=0;" edge="1" target="SIVp_1UuZN5y42gcSO3J-102" parent="1" source="SIVp_1UuZN5y42gcSO3J-86">
          <mxGeometry relative="1" as="geometry">
            <mxPoint x="270" y="-75" as="sourcePoint" />
          </mxGeometry>
        </mxCell>
        <mxCell id="SIVp_1UuZN5y42gcSO3J-101" value="" style="rounded=0;orthogonalLoop=1;jettySize=auto;html=1;endArrow=oval;endFill=0;sketch=0;sourcePerimeterSpacing=0;targetPerimeterSpacing=0;endSize=10;exitX=1;exitY=1;exitDx=0;exitDy=0;" edge="1" target="SIVp_1UuZN5y42gcSO3J-102" parent="1" source="SIVp_1UuZN5y42gcSO3J-1">
          <mxGeometry relative="1" as="geometry">
            <mxPoint x="230" y="-75" as="sourcePoint" />
          </mxGeometry>
        </mxCell>
        <mxCell id="SIVp_1UuZN5y42gcSO3J-102" value="" style="ellipse;whiteSpace=wrap;html=1;align=center;aspect=fixed;fillColor=none;strokeColor=none;resizable=0;perimeter=centerPerimeter;rotatable=0;allowArrows=0;points=[];outlineConnect=1;" vertex="1" parent="1">
          <mxGeometry x="245" y="-80" width="10" height="10" as="geometry" />
        </mxCell>
        <mxCell id="SIVp_1UuZN5y42gcSO3J-103" value="&lt;font style=&quot;font-size: 9px;&quot;&gt;View on map&lt;/font&gt;" style="html=1;whiteSpace=wrap;fillColor=#66FF66;" vertex="1" parent="1">
          <mxGeometry x="415" y="-250" width="55" height="27.5" as="geometry" />
        </mxCell>
      </root>
    </mxGraphModel>
  </diagram>
</mxfile>
